<svg xmlns="http://www.w3.org/2000/svg" viewBox="0 0 22 19" width="22" height="19">
	<style>
		tspan { white-space:pre }
		.shp0 { fill: #ffffff } 
	</style>
	<path id="Shape 1012" class="shp0" d="M13 1C12.76 1 12.52 1.14 12.41 1.36C12.3 1.59 12.31 1.87 12.45 2.08L16.14 7.93L5.86 7.93L9.56 2.08C9.7 1.86 9.7 1.55 9.57 1.33C9.44 1.1 9.17 0.97 8.92 1C8.72 1.03 8.55 1.15 8.44 1.32L4.27 7.93C3.38 7.93 2.48 7.93 1.59 7.93C1.23 7.97 0.94 8.38 1.01 8.75C1.59 12.01 2.2 15.21 2.79 18.44C2.85 18.75 3.13 19 3.44 19L18.56 19C18.87 19 19.16 18.75 19.21 18.44L19.9 14.75C19.9 14.73 19.9 14.7 19.9 14.68L20.99 8.75C21.07 8.35 20.73 7.93 20.34 7.93L17.73 7.93L13.56 1.32C13.44 1.13 13.22 1 13 1L13 1ZM2.47 9.31L5.89 9.31L5.89 10.93L2.77 10.93L2.47 9.31ZM7.22 9.31L10.33 9.31L10.33 10.93L7.22 10.93L7.22 9.31ZM11.67 9.31L14.78 9.31L14.78 10.93L11.67 10.93L11.67 9.31ZM16.12 9.31L19.53 9.31L19.24 10.93L16.12 10.93L16.12 9.31ZM3.02 12.31L5.89 12.31L5.89 13.93L3.32 13.93L3.02 12.31ZM7.22 12.31L10.33 12.31L10.33 13.93L7.22 13.93L7.22 12.31ZM11.67 12.31L14.78 12.31L14.78 13.93L11.67 13.93L11.67 12.31ZM16.12 12.31L18.99 12.31L18.69 13.93L16.12 13.93L16.12 12.31ZM3.57 15.31L5.89 15.31L5.89 17.62L3.99 17.62L3.57 15.31ZM7.22 15.31L10.33 15.31L10.33 17.62L7.22 17.62L7.22 15.31ZM11.67 15.31L14.78 15.31L14.78 17.62L11.67 17.62L11.67 15.31ZM16.12 15.31L18.44 15.31L18.01 17.62L16.12 17.62L16.12 15.31Z" />
</svg>