<svg xmlns="http://www.w3.org/2000/svg" viewBox="0 0 17 17" width="17" height="17">
	<style>
		tspan { white-space:pre }
		.shp0 { fill: #000000 } 
	</style>
	<path id="Rounded Rectangle 3 copy" class="shp0" d="M1.38,1.38c-0.53,0.53 -0.53,1.38 0,1.9l13.32,13.32c0.53,0.53 1.38,0.53 1.9,0c0.53,-0.53 0.53,-1.38 0,-1.9l-13.32,-13.32c-0.53,-0.53 -1.38,-0.53 -1.9,0zM14.7,1.38l-13.32,13.32c-0.53,0.53 -0.53,1.38 0,1.9c0.53,0.53 1.38,0.53 1.9,0l13.32,-13.32c0.53,-0.53 0.53,-1.38 0,-1.9c-0.53,-0.53 -1.38,-0.53 -1.9,0z" />
</svg>